<?xml version="1.0" standalone="no"?>
<!DOCTYPE svg PUBLIC "-//W3C//DTD SVG 20010904//EN"
 "http://www.w3.org/TR/2001/REC-SVG-20010904/DTD/svg10.dtd">
<svg version="1.0" xmlns="http://www.w3.org/2000/svg"
 width="693.000000pt" height="538.000000pt" viewBox="0 0 693.000000 538.000000"
 preserveAspectRatio="xMidYMid meet">

<g transform="translate(0.000000,538.000000) scale(0.100000,-0.100000)"
fill="#000000" stroke="none">
<path d="M420 2991 l0 -941 318 0 c356 0 454 10 605 60 284 95 488 292 576
555 41 125 55 234 48 379 -12 242 -83 418 -231 573 -143 151 -309 240 -536
289 -58 13 -156 17 -427 21 l-353 5 0 -941z m720 624 c112 -27 226 -90 305
-170 123 -123 175 -259 175 -455 0 -239 -95 -426 -273 -538 -126 -80 -261
-112 -466 -112 l-121 0 0 651 0 652 158 -6 c86 -3 186 -13 222 -22z"/>
<path d="M2110 2990 l0 -940 170 0 170 0 0 270 0 270 115 0 c328 0 539 66 690
215 124 123 178 259 178 455 0 196 -53 332 -179 457 -57 57 -92 81 -166 117
-170 82 -269 96 -680 96 l-298 0 0 -940z m626 639 c139 -19 237 -71 293 -156
42 -64 55 -113 56 -213 0 -109 -22 -173 -82 -240 -85 -94 -185 -128 -405 -137
l-148 -6 0 381 0 382 104 0 c58 0 140 -5 182 -11z"/>
<path d="M3371 3873 l0 -58 473 -775 473 -775 76 -3 75 -3 310 515 309 516 6
-203 c4 -111 7 -390 7 -619 l0 -418 160 0 160 0 0 940 0 940 -142 0 -143 -1
-364 -619 c-201 -341 -367 -622 -369 -625 -3 -2 -173 277 -379 620 l-374 625
-139 0 -140 0 1 -57z"/>
</g>
</svg>
