<?xml version="1.0" standalone="no"?>
<!DOCTYPE svg PUBLIC "-//W3C//DTD SVG 20010904//EN"
 "http://www.w3.org/TR/2001/REC-SVG-20010904/DTD/svg10.dtd">
<svg version="1.0" xmlns="http://www.w3.org/2000/svg"
 width="520.000000pt" height="526.000000pt" viewBox="0 0 520.000000 526.000000"
 preserveAspectRatio="xMidYMid meet">

<g transform="translate(0.000000,526.000000) scale(0.100000,-0.100000)"
fill="#000000" stroke="none">
<path d="M320 2856 l0 -696 228 0 c297 0 400 18 539 93 78 42 171 138 210 217
60 119 77 204 77 385 0 180 -17 264 -76 383 -43 86 -144 187 -230 230 -130 65
-193 75 -485 80 l-263 4 0 -696z m553 460 c80 -22 126 -47 176 -97 84 -84 115
-183 115 -369 0 -176 -30 -273 -113 -357 -79 -82 -172 -112 -378 -120 l-143
-6 0 488 0 488 143 -6 c78 -3 168 -13 200 -21z"/>
<path d="M1446 3534 c-8 -20 -8 -1348 0 -1368 5 -13 24 -16 105 -16 l99 0 0
260 c0 201 3 260 13 260 6 0 140 1 297 3 279 3 287 3 358 29 129 46 236 147
283 265 19 47 23 78 24 158 0 91 -3 106 -31 165 -66 138 -189 229 -339 250
-38 5 -235 10 -436 10 -325 0 -368 -2 -373 -16z m835 -222 c166 -87 169 -296
5 -397 l-49 -30 -291 0 -291 0 -3 228 -2 227 289 0 289 0 53 -28z"/>
<path d="M2490 3517 c0 -28 22 -62 128 -198 660 -847 591 -764 635 -767 19 -1
43 1 55 5 21 8 97 102 397 492 64 83 121 151 126 151 5 0 6 -26 1 -62 -4 -35
-7 -270 -7 -523 l0 -460 103 -3 102 -3 -2 698 -3 698 -97 3 -97 3 -45 -58
c-25 -32 -150 -197 -279 -367 -128 -171 -238 -311 -244 -313 -8 -3 -260 323
-517 670 l-51 67 -102 0 -103 0 0 -33z"/>
</g>
</svg>
